<?xml version="1.0" encoding="UTF-8"?>
<!DOCTYPE svg PUBLIC "-//W3C//DTD SVG 1.1//EN" "http://www.w3.org/Graphics/SVG/1.1/DTD/svg11.dtd">
<!-- Creator: CorelDRAW X8 -->
<svg xmlns="http://www.w3.org/2000/svg" xml:space="preserve" width="178.624mm" height="33.045mm" version="1.1" style="shape-rendering:geometricPrecision; text-rendering:geometricPrecision; image-rendering:optimizeQuality; fill-rule:evenodd; clip-rule:evenodd"
viewBox="0 0 15911 2943"
 xmlns:xlink="http://www.w3.org/1999/xlink">
 <defs>
  <style type="text/css">
   <![CDATA[
    .str1 {stroke:#FEFEFE;stroke-width:31.4163}
    .str0 {stroke:#2B2A29;stroke-width:17.8148}
    .fil3 {fill:#2B2A29}
    .fil1 {fill:black}
    .fil2 {fill:#3FAB3C}
    .fil0 {fill:white}
   ]]>
  </style>
 </defs>
 <g id="Слой_x0020_1">
  <metadata id="CorelCorpID_0Corel-Layer"/>
  <g id="_2801766756656">
   <polygon class="fil0 str0" points="892,1354 1879,1354 1381,1734 877,1407 "/>
   <polygon class="fil0 str0" points="745,1401 155,2070 1360,2827 1357,1778 774,1348 "/>
   <polygon class="fil0 str0" points="1331,124 855,632 1304,961 1340,532 "/>
   <path class="fil1 str1" d="M1353 2925l-1329 -836 700 -813 230 0 352 -219 -593 -405 633 -630 598 593 589 -382 228 295 -626 406 155 205 456 -296 205 284 -452 292 153 201 647 -420 229 305 -2175 1420zm-66 -2702l0 0 -409 409 408 283 1 -692zm65 1455l0 0 426 -290 -837 -1 411 291zm-1135 385l0 0 1077 691 2 -966 -525 -370 -554 645z"/>
   <polygon class="fil2" points="1400,227 1806,639 1400,919 "/>
   <polygon class="fil2" points="1952,1402 2455,2080 1411,2758 1412,1781 "/>
  </g>
  <g id="_2801766757968">
   <polygon class="fil3" points="4104,688 4946,687 4946,1082 4557,1083 4558,1316 4906,1316 4906,1711 4558,1711 4558,1966 4946,1966 4947,2361 4105,2362 "/>
   <path class="fil3" d="M5621 1189l0 630c0,140 9,202 85,202 78,0 86,-60 86,-202l0 -630 435 -1 0 691c1,346 -201,506 -521,506 -337,0 -520,-186 -520,-506l0 -690 435 0z"/>
   <path class="fil3" d="M7191 1650c-40,-20 -91,-43 -122,-43 -162,0 -182,156 -182,278l0 475 -435 0 -1 -1172 438 0 -25 224 5 5c48,-145 159,-260 321,-254l1 487z"/>
   <path class="fil3" d="M8434 1773c0,329 -170,611 -546,611 -375,0 -546,-282 -546,-610 0,-329 170,-611 546,-611 375,0 546,282 546,610zm-666 1l0 0c0,120 16,284 120,284 105,0 120,-165 120,-285 0,-119 -16,-284 -120,-284 -104,0 -120,165 -120,285z"/>
   <path class="fil3" d="M9358 1648c-40,-20 -92,-42 -123,-42 -162,0 -182,156 -182,278l1 475 -435 0 -1 -1172 437 0 -24 224 5 5c48,-145 159,-260 321,-254l1 486z"/>
   <path class="fil3" d="M9524 818c-1,-137 113,-253 250,-253 140,0 258,109 258,251 0,139 -111,257 -253,257 -140,0 -255,-113 -255,-255zm36 1541l0 0 -1 -1172 435 -1 1 1173 -435 0z"/>
   <path class="fil3" d="M10823 2374c-40,2 -77,8 -117,9 -338,0 -527,-302 -527,-615 0,-322 215,-606 552,-606 32,0 60,2 92,4l0 380c-129,6 -196,88 -196,213 1,93 56,217 167,217l29 0 0 398z"/>
   <path class="fil3" d="M12071 2357l-435 1 20 -194 -5 -4c-55,124 -157,222 -299,222 -302,0 -360,-393 -360,-621 0,-231 68,-600 368,-600 140,0 226,93 282,209l4 -5 -18 -180 442 0 1 1172zm-449 -441l0 0c14,-60 13,-127 14,-160 -1,-31 1,-89 -10,-142 -11,-51 -33,-95 -84,-95 -53,0 -78,53 -91,117 -11,62 -11,136 -11,173 0,34 2,87 14,134 11,44 33,79 75,79 56,0 82,-48 93,-106z"/>
   <path class="fil3" d="M12739 1376l4 4c46,-122 149,-220 288,-220 158,0 258,102 307,242l4 0c38,-131 133,-242 284,-242 229,0 314,162 314,419l0 777 -435 1 0 -635c0,-47 -7,-140 -72,-140 -55,0 -73,33 -84,78 -11,42 -9,93 -9,131l1 566 -435 0 -1 -648c0,-54 -11,-120 -66,-120 -54,0 -78,35 -89,80 -11,44 -9,95 -9,131l0 557 -435 0 -1 -1172 440 0 -6 191z"/>
   <path class="fil3" d="M14174 587l435 0 1 601 -7 160 5 5c51,-118 135,-194 270,-194 318,0 376,380 376,622 0,162 -33,599 -375,599 -133,0 -206,-75 -264,-182l-4 5 9 153 -444 0 -2 -1769zm632 1176l0 0c0,-73 -7,-242 -116,-242 -89,0 -95,180 -95,240 0,69 2,247 104,247 100,-1 107,-180 107,-245z"/>
   <path class="fil3" d="M15402 815c0,-138 113,-253 251,-253 140,0 258,108 258,251 0,139 -111,257 -253,257 -140,0 -256,-113 -256,-255zm37 1541l0 0 -1 -1172 435 -1 1 1172 -435 1z"/>
  </g>
 </g>
</svg>
