<?xml version="1.0" encoding="UTF-8"?>
<!DOCTYPE svg PUBLIC "-//W3C//DTD SVG 1.1//EN" "http://www.w3.org/Graphics/SVG/1.1/DTD/svg11.dtd">
<!-- Creator: CorelDRAW X8 -->
<svg xmlns="http://www.w3.org/2000/svg" xml:space="preserve" width="180.224mm" height="33.1155mm" version="1.1" style="shape-rendering:geometricPrecision; text-rendering:geometricPrecision; image-rendering:optimizeQuality; fill-rule:evenodd; clip-rule:evenodd"
viewBox="0 0 16197 2976"
 xmlns:xlink="http://www.w3.org/1999/xlink">
 <defs>
  <style type="text/css">
   <![CDATA[
    .str1 {stroke:#FEFEFE;stroke-width:31.6977}
    .str0 {stroke:#2B2A29;stroke-width:17.9743}
    .fil1 {fill:black}
    .fil2 {fill:#3FAB3C}
    .fil3 {fill:#FEFEFE}
    .fil0 {fill:white}
   ]]>
  </style>
 </defs>
 <g id="Слой_x0020_1">
  <metadata id="CorelCorpID_0Corel-Layer"/>
  <polygon class="fil0 str0" points="900,1366 1896,1366 1393,1750 885,1420 "/>
  <polygon class="fil0 str0" points="751,1414 157,2088 1372,2852 1369,1794 781,1360 "/>
  <polygon class="fil0 str0" points="1343,125 863,638 1316,969 1352,537 "/>
  <path class="fil1 str1" d="M1365 2951l-1341 -844 707 -820 231 1 356 -221 -598 -409 638 -636 603 599 595 -386 229 298 -631 409 156 207 461 -299 206 287 -456 294 154 204 654 -425 230 308 -2194 1433zm-67 -2726l0 0 -412 413 412 286 0 -699zm66 1468l0 0 430 -293 -845 0 415 293zm-1145 389l0 0 1087 697 2 -974 -530 -374 -559 651z"/>
  <polygon class="fil2" points="1413,229 1822,645 1412,928 "/>
  <polygon class="fil2" points="1969,1414 2477,2098 1424,2783 1424,1797 "/>
  <path class="fil3" d="M774 38c-92,0 -131,70 -131,130 0,62 40,131 131,131 80,0 131,-59 131,-130 0,-68 -45,-131 -131,-131zm0 32l0 0c58,0 99,39 99,97 0,59 -41,100 -99,100 -59,0 -98,-40 -98,-99 0,-58 39,-98 98,-98zm-28 114l0 0 0 56 -32 0 0 -141 79 0c30,1 47,11 47,43 0,27 -13,37 -37,39l33 59 -37 0 -30 -56 -23 0zm33 -60l0 0c18,0 29,3 29,18 0,12 -8,16 -22,16l-40 0 0 -34 33 0z"/>
  <polygon class="fil3" points="4285,1264 5134,1263 5134,1662 4742,1662 4742,1897 5094,1897 5094,2296 4742,2296 4743,2553 5135,2553 5135,2952 4286,2952 "/>
  <path class="fil3" d="M5815 1769l0 636c0,141 9,204 86,204 78,0 87,-61 87,-204l-1 -636 440 0 0 696c0,350 -203,511 -526,511 -341,0 -524,-188 -524,-510l-1 -697 439 0z"/>
  <path class="fil3" d="M7399 2234c-40,-20 -92,-42 -123,-42 -164,0 -184,156 -184,280l1 479 -439 0 -1 -1182 441 -1 -24 227 4 4c49,-146 161,-262 325,-256l0 491z"/>
  <path class="fil3" d="M8653 2359c1,331 -172,616 -550,616 -379,0 -551,-284 -552,-616 0,-331 173,-616 551,-616 379,0 551,284 551,616zm-672 0l0 0c0,121 16,287 122,287 105,0 120,-166 120,-287 0,-121 -15,-287 -121,-287 -105,1 -121,166 -121,287z"/>
  <path class="fil3" d="M9585 2233c-40,-20 -92,-43 -123,-43 -163,0 -184,157 -184,280l1 480 -439 0 -1 -1183 441 0 -24 226 4 5c49,-146 161,-262 325,-256l0 491z"/>
  <path class="fil3" d="M9753 1395c-1,-139 114,-255 252,-255 142,0 261,109 261,253 0,141 -112,259 -256,260 -141,0 -257,-115 -257,-258zm36 1555l0 0 0 -1183 439 0 1 1182 -440 1z"/>
  <path class="fil3" d="M11064 2965c-40,2 -78,8 -119,9 -340,0 -531,-305 -531,-621 0,-324 217,-611 557,-611 32,0 61,2 92,4l0 383c-129,7 -197,90 -197,215 1,94 57,220 169,220l29 0 0 401z"/>
  <path class="fil3" d="M12323 2948l-439 0 20 -194 -5 -5c-56,126 -158,224 -302,224 -304,0 -363,-396 -363,-627 0,-233 69,-605 371,-605 141,0 229,94 285,211l4 -5 -18 -181 446 0 1 1182zm-453 -445l0 0c14,-61 13,-128 14,-162 -1,-31 1,-89 -10,-143 -11,-51 -33,-96 -85,-96 -54,0 -78,54 -92,119 -11,62 -11,136 -11,174 0,34 3,88 14,135 11,44 34,80 76,80 56,0 83,-49 94,-107z"/>
  <path class="fil3" d="M12996 1958l5 4c47,-123 150,-221 291,-222 159,0 260,103 309,244l5 0c38,-132 134,-244 286,-244 231,0 316,164 316,423l1 784 -439 1 -1 -641c0,-47 -7,-141 -72,-141 -55,0 -73,34 -84,78 -12,43 -9,94 -9,132l0 572 -439 0 0 -654c0,-54 -12,-121 -68,-121 -53,0 -78,36 -89,81 -11,44 -9,96 -9,132l0 562 -439 0 -1 -1182 444 -1 -7 193z"/>
  <path class="fil3" d="M14445 1162l439 0 1 607 -7 161 5 5c51,-119 136,-195 273,-195 320,-1 378,382 378,626 1,164 -33,605 -378,605 -134,0 -208,-76 -266,-183l-5 4 9 155 -448 0 -1 -1785zm637 1187l0 0c0,-74 -7,-244 -117,-244 -89,0 -96,181 -96,242 0,69 3,248 106,248 100,0 107,-181 107,-246z"/>
  <path class="fil3" d="M15684 1392c0,-139 114,-255 253,-255 141,0 260,109 260,253 0,141 -112,259 -255,259 -141,1 -258,-113 -258,-257zm37 1554l0 0 -1 -1182 439 0 1 1182 -439 0z"/>
 </g>
</svg>
