<?xml version="1.0" encoding="UTF-8"?>
<!DOCTYPE svg PUBLIC "-//W3C//DTD SVG 1.1//EN" "http://www.w3.org/Graphics/SVG/1.1/DTD/svg11.dtd">
<!-- Creator: CorelDRAW X8 -->
<svg xmlns="http://www.w3.org/2000/svg" xml:space="preserve" width="178.356mm" height="32.5869mm" version="1.1" style="shape-rendering:geometricPrecision; text-rendering:geometricPrecision; image-rendering:optimizeQuality; fill-rule:evenodd; clip-rule:evenodd"
viewBox="0 0 15990 2922"
 xmlns:xlink="http://www.w3.org/1999/xlink">
 <defs>
  <style type="text/css">
   <![CDATA[
    .fil0 {fill:#FEFEFE}
   ]]>
  </style>
 </defs>
 <g id="Слой_x0020_1">
  <metadata id="CorelCorpID_0Corel-Layer"/>
  <path class="fil0" d="M1338 2922l-1338 -842 705 -818 231 0 355 -220 -597 -408 636 -634 602 597 594 -385 229 297 -630 409 155 206 460 -298 206 286 -455 294 154 202 652 -423 229 307 -2188 1430zm602 -1534l507 683 -1050 683 0 -983 543 -383zm-555 -1182l409 415 -409 282 0 -697zm-114 -4l0 0 -411 412 411 285 0 -697zm66 1465l0 0 428 -293 -842 0 414 293zm-1142 387l0 0 1084 696 2 -972 -529 -373 -557 649z"/>
  <g id="_1921105479264">
   <polygon class="fil0" points="4107,670 4954,669 4954,1067 4563,1067 4563,1302 4914,1302 4914,1700 4564,1700 4564,1957 4955,1956 4955,2354 4108,2355 "/>
   <path class="fil0" d="M5633 1174l1 635c0,140 9,203 85,203 78,0 87,-60 87,-203l-1 -635 438 0 1 695c0,348 -203,509 -525,509 -340,0 -523,-187 -523,-509l0 -695 437 0z"/>
   <path class="fil0" d="M7214 1638c-41,-20 -92,-42 -123,-42 -164,0 -183,156 -183,279l0 478 -438 0 -1 -1179 440 -1 -24 226 4 5c49,-146 161,-262 324,-255l1 489z"/>
   <path class="fil0" d="M8465 1762c0,331 -172,615 -549,615 -378,0 -550,-283 -550,-614 -1,-331 171,-615 549,-615 378,0 550,284 550,614zm-670 1l0 0c0,121 15,286 121,286 105,0 120,-166 120,-286 0,-121 -16,-286 -121,-286 -105,0 -121,165 -120,286z"/>
   <path class="fil0" d="M9394 1637c-40,-20 -91,-43 -122,-43 -164,1 -184,157 -184,280l1 478 -438 0 -1 -1179 440 -1 -24 226 4 4c49,-145 161,-261 324,-254l0 489z"/>
   <path class="fil0" d="M9561 801c0,-138 114,-255 253,-255 141,0 259,110 259,253 0,140 -111,259 -254,259 -141,0 -257,-114 -258,-257zm37 1551l0 0 -1 -1180 438 0 1 1180 -438 0z"/>
   <path class="fil0" d="M10870 2367c-41,2 -79,9 -119,9 -339,0 -530,-304 -530,-619 0,-324 217,-610 556,-610 31,0 61,2 92,4l0 382c-129,7 -196,90 -196,215 0,94 56,219 167,219l29 0 1 400z"/>
   <path class="fil0" d="M12125 2350l-437 1 19 -195 -4 -4c-56,125 -158,223 -302,223 -303,1 -362,-395 -362,-625 0,-232 69,-603 371,-604 140,0 228,94 284,210l4 -4 -18 -181 445 0 0 1179zm-451 -444l0 0c13,-60 13,-127 13,-161 0,-31 2,-89 -9,-143 -11,-51 -34,-96 -85,-96 -54,0 -78,54 -92,119 -11,62 -11,136 -11,174 1,33 3,87 14,134 11,45 34,80 76,80 56,0 83,-49 94,-107z"/>
   <path class="fil0" d="M12797 1363l5 4c47,-123 149,-221 290,-221 159,0 259,102 309,243l4 0c38,-132 134,-244 286,-244 230,0 315,163 315,422l1 783 -438 0 -1 -639c0,-47 -6,-141 -71,-141 -56,0 -74,34 -85,78 -11,43 -9,94 -9,132l1 570 -438 0 -1 -652c0,-54 -11,-121 -67,-121 -54,0 -78,36 -89,80 -11,45 -9,97 -9,132l0 561 -438 0 -1 -1179 443 -1 -7 193z"/>
   <path class="fil0" d="M14243 568l437 0 1 606 -7 161 5 4c51,-118 136,-194 272,-194 320,-1 378,382 378,625 0,163 -33,603 -377,603 -134,1 -208,-75 -266,-183l-4 5 9 154 -447 0 -1 -1781zm635 1185l0 0c0,-74 -7,-244 -116,-244 -90,0 -96,181 -96,241 0,70 2,248 105,248 100,0 107,-181 107,-245z"/>
   <path class="fil0" d="M15478 798c0,-138 114,-255 253,-255 140,0 259,110 259,253 0,140 -112,259 -254,259 -141,0 -257,-114 -258,-257zm37 1551l0 0 -1 -1180 438 0 1 1179 -438 1z"/>
  </g>
 </g>
</svg>
